<svg width="49" height="48" fill="none" xmlns="http://www.w3.org/2000/svg"><path d="M16.573 31.427h9.02l20.598-20.574a6.393 6.393 0 000-9.045 6.558 6.558 0 00-9.044 0L16.573 22.406v9.02zm4.735-7.103L40.51 5.147a1.634 1.634 0 012.368 0 1.61 1.61 0 010 2.367L23.676 26.692h-2.368v-2.368z" fill="#fff"/><path d="M42.617 41.063a2.202 2.202 0 01-2.202 2.202H6.937a2.202 2.202 0 01-2.202-2.202V7.585a2.202 2.202 0 012.202-2.202h23.842V.648H6.937A6.937 6.937 0 000 7.585v33.478A6.937 6.937 0 006.937 48h33.478a6.937 6.937 0 006.937-6.937V19.589h-4.735v21.474z" fill="#fff"/></svg>